<svg width="88" height="88" viewBox="0 0 88 88" fill="none" xmlns="http://www.w3.org/2000/svg">
<g filter="url(#filter0_d_192_114)">
<rect x="23" y="18" width="41.7571" height="41.7571" rx="20.8785" fill="#E3B873"/>
<rect x="19" y="14" width="49.7571" height="49.7571" rx="24.8785" stroke="white" stroke-width="8"/>
</g>
<path d="M38.4709 44.7517C37.4989 44.7517 36.6169 44.4937 35.8249 43.9777C35.0329 43.4617 34.4029 42.7117 33.9349 41.7277C33.4789 40.7317 33.2509 39.5497 33.2509 38.1817C33.2509 36.8137 33.4789 35.6377 33.9349 34.6537C34.4029 33.6577 35.0329 32.9017 35.8249 32.3857C36.6169 31.8697 37.4989 31.6117 38.4709 31.6117C39.4429 31.6117 40.3249 31.8697 41.1169 32.3857C41.9089 32.9017 42.5329 33.6577 42.9889 34.6537C43.4569 35.6377 43.6909 36.8137 43.6909 38.1817C43.6909 39.5497 43.4569 40.7317 42.9889 41.7277C42.5329 42.7117 41.9089 43.4617 41.1169 43.9777C40.3249 44.4937 39.4429 44.7517 38.4709 44.7517ZM38.4709 44.3917C39.8509 44.3917 40.5409 42.3217 40.5409 38.1817C40.5409 34.0417 39.8509 31.9717 38.4709 31.9717C37.0909 31.9717 36.4009 34.0417 36.4009 38.1817C36.4009 42.3217 37.0909 44.3917 38.4709 44.3917ZM45.0395 43.6717C45.0395 42.9637 45.1775 42.3217 45.4535 41.7457C45.7415 41.1577 46.0895 40.6477 46.4975 40.2157C46.9055 39.7837 47.4395 39.2737 48.0995 38.6857C48.7115 38.1457 49.1915 37.6957 49.5395 37.3357C49.8875 36.9637 50.1815 36.5497 50.4215 36.0937C50.6615 35.6257 50.7815 35.1217 50.7815 34.5817C50.7815 33.7897 50.5895 33.1717 50.2055 32.7277C49.8215 32.2837 49.3235 32.0617 48.7115 32.0617C48.3635 32.0617 48.0095 32.1097 47.6495 32.2057L47.2715 32.3317V35.2117L47.0375 35.2657C46.8455 35.2897 46.6835 35.3017 46.5515 35.3017C46.1435 35.3017 45.8135 35.1817 45.5615 34.9417C45.3215 34.6897 45.2015 34.3597 45.2015 33.9517C45.2015 33.5677 45.3455 33.1957 45.6335 32.8357C45.9335 32.4757 46.3715 32.1817 46.9475 31.9537C47.5355 31.7257 48.2435 31.6117 49.0715 31.6117C50.6915 31.6117 51.8915 31.9357 52.6715 32.5837C53.4515 33.2317 53.8415 34.1377 53.8415 35.3017C53.8415 36.0337 53.6495 36.6637 53.2655 37.1917C52.8935 37.7197 52.4315 38.1577 51.8795 38.5057C51.3395 38.8537 50.6135 39.2497 49.7015 39.6937C48.9335 40.0657 48.3095 40.3957 47.8295 40.6837C47.3615 40.9597 46.9235 41.2957 46.5155 41.6917C46.1195 42.0877 45.8375 42.5377 45.6695 43.0417H52.3295C52.4135 42.3937 52.6175 41.8537 52.9415 41.4217C53.0735 41.2177 53.2295 41.0377 53.4095 40.8817H53.9495V44.4817H45.0395V43.6717Z" fill="white"/>
<defs>
<filter id="filter0_d_192_114" x="0" y="0" width="87.7568" height="87.7571" filterUnits="userSpaceOnUse" color-interpolation-filters="sRGB">
<feFlood flood-opacity="0" result="BackgroundImageFix"/>
<feColorMatrix in="SourceAlpha" type="matrix" values="0 0 0 0 0 0 0 0 0 0 0 0 0 0 0 0 0 0 127 0" result="hardAlpha"/>
<feOffset dy="5"/>
<feGaussianBlur stdDeviation="7.5"/>
<feColorMatrix type="matrix" values="0 0 0 0 0.890196 0 0 0 0 0.721569 0 0 0 0 0.45098 0 0 0 0.15 0"/>
<feBlend mode="normal" in2="BackgroundImageFix" result="effect1_dropShadow_192_114"/>
<feBlend mode="normal" in="SourceGraphic" in2="effect1_dropShadow_192_114" result="shape"/>
</filter>
</defs>
</svg>
