<?xml version="1.0" encoding="utf-8"?>
<!-- Generator: Adobe Illustrator 16.0.0, SVG Export Plug-In . SVG Version: 6.00 Build 0)  -->
<!DOCTYPE svg PUBLIC "-//W3C//DTD SVG 1.1//EN" "http://www.w3.org/Graphics/SVG/1.1/DTD/svg11.dtd">
<svg version="1.1" id="Layer_1" xmlns="http://www.w3.org/2000/svg" xmlns:xlink="http://www.w3.org/1999/xlink" x="0px" y="0px"
	 width="72px" height="72px" viewBox="0 0 72 72" enable-background="new 0 0 72 72" xml:space="preserve">
<g>
	<circle fill="#E3B873" cx="36" cy="36" r="36"/>
</g>
<path fill="#FFFFFF" stroke="#FFFFFF" stroke-width="0.1" d="M36.34,43.278c-0.378,0-0.688,0.299-0.688,0.671v1.325
	c0,0.372,0.309,0.671,0.688,0.671c0.378,0,0.687-0.299,0.687-0.671v-1.325C37.026,43.577,36.718,43.278,36.34,43.278z"/>
<path fill="#FFFFFF" stroke="#FFFFFF" stroke-width="0.1" d="M53.059,34L53.059,34c-0.451-2.158-1.463-4.192-2.926-5.882
	c-1.409-1.628-3.211-2.909-5.221-3.717c-0.329-1.336-1.02-2.713-2.373-3.751c-1.318-1.01-2.646-1.204-2.705-1.213l0,0
	c-0.197-0.027-0.396,0.03-0.547,0.157c-0.15,0.127-0.237,0.312-0.237,0.507v3.303h-2.225c-0.589-1.914-2.411-3.312-4.562-3.312
	c-2.198,0-4.054,1.46-4.6,3.439c-3.148,0.426-6.043,1.917-8.194,4.23l0.037,0.034l-0.037-0.034c-2.269,2.442-3.519,5.603-3.519,8.9
	c0,7.39,3.934,13.4,5.139,15.065c0.382,0.527,1.006,0.842,1.669,0.842h2.711c1.127,0,2.046-0.895,2.046-1.996v-0.802
	c0.67,0.098,1.35,0.147,2.031,0.147h6.107v0.654c0,1.102,0.919,1.996,2.046,1.996h2.978c0.957,0,1.799-0.662,2-1.578l0.32-1.456
	c4.176-1.001,7.535-3.858,9.198-7.564h2.488c0.752,0,1.366-0.597,1.366-1.333v-5.299c0-0.357-0.142-0.692-0.4-0.944
	c-0.259-0.251-0.601-0.39-0.966-0.39l0,0l0,0l0,0l0,0l0,0l0,0l0,0h-1.625C53.059,34.003,53.059,34.002,53.059,34z M54.676,40.587
	L54.676,40.587v0.042h-1.965c0.336-1.043,0.543-2.139,0.604-3.269c0.02-0.372-0.273-0.686-0.651-0.705
	c-0.378-0.019-0.702,0.264-0.722,0.635c-0.267,5.022-3.756,9.316-8.619,10.767l0.871-3.966c0.08-0.364-0.158-0.72-0.527-0.797
	c-0.37-0.077-0.736,0.152-0.816,0.516l-1.516,6.901c-0.066,0.299-0.342,0.518-0.657,0.518h-2.979c-0.372,0-0.672-0.295-0.672-0.654
	v-2.649c0-0.372-0.309-0.671-0.687-0.671c-0.378,0-0.687,0.299-0.687,0.671v0.653h-6.107c-0.682,0-1.362-0.056-2.031-0.164v-4.464
	c0-0.372-0.309-0.671-0.687-0.671c-0.378,0-0.687,0.299-0.687,0.671v6.624c0,0.359-0.3,0.654-0.672,0.654h-2.711
	c-0.223,0-0.422-0.101-0.547-0.273l0,0c-1.147-1.586-4.887-7.3-4.887-14.292c0-2.963,1.123-5.804,3.163-7.998L20.45,28.63
	l0.037,0.034c1.854-1.994,4.323-3.309,7.018-3.75c0.015,0.388,0.08,0.771,0.191,1.141h-0.188c-0.378,0-0.687,0.299-0.687,0.671
	s0.309,0.671,0.687,0.671h9.512c0.378,0,0.687-0.3,0.687-0.671s-0.309-0.671-0.687-0.671h-0.188
	c0.127-0.422,0.193-0.863,0.194-1.308h2.023v1.316c0,0.372,0.309,0.671,0.687,0.671c0.379,0,0.688-0.299,0.688-0.671V20.99
	c0.595,0.229,1.419,0.678,2.105,1.533c0.711,0.887,1.276,2.217,1.276,4.203c0,0.372,0.309,0.671,0.687,0.671
	c0.379,0,0.688-0.299,0.688-0.671c0-0.238-0.008-0.488-0.025-0.746c1.498,0.725,2.844,1.75,3.929,3.004
	c1.314,1.52,2.224,3.347,2.629,5.285c0.131,0.625,0.692,1.078,1.337,1.078h1.627V40.587z M32.263,21.436
	c1.87,0,3.39,1.483,3.39,3.304c0,0.455-0.098,0.903-0.282,1.316h-6.216c-0.184-0.413-0.282-0.861-0.282-1.316
	C28.874,22.918,30.393,21.436,32.263,21.436z"/>
<path fill="#FFFFFF" stroke="#FFFFFF" stroke-width="0.1" d="M43.912,34.44L43.912,34.44c0.402-1.055,1.469-1.761,2.65-1.761
	c1.181,0,2.246,0.706,2.65,1.761l0,0l-0.047,0.018c0.123,0.321-0.045,0.679-0.375,0.799L43.912,34.44z M43.912,34.44
	c-0.134,0.349,0.049,0.735,0.403,0.864 M43.912,34.44l0.403,0.864 M44.315,35.304c0.354,0.129,0.751-0.046,0.884-0.394
	L44.315,35.304z M48.569,35.347c0.079,0,0.16-0.014,0.239-0.042l-3.609-0.394c0.201-0.529,0.748-0.889,1.363-0.889
	c0.613,0,1.16,0.359,1.363,0.889C48.029,35.181,48.291,35.347,48.569,35.347z"/>
<path fill="#FFFFFF" stroke="#FFFFFF" stroke-width="0.1" d="M35.212,37.076c-0.651-0.442-1.492-0.712-2.262-0.925v-3.079
	c0.595,0.077,1.099,0.25,1.455,0.462c0.371,0.222,0.569,0.478,0.569,0.706c0,0.372,0.309,0.671,0.687,0.671
	c0.378,0,0.687-0.299,0.687-0.671c0-0.655-0.374-1.242-0.989-1.685c-0.604-0.437-1.446-0.737-2.409-0.835v-0.026
	c0-0.372-0.309-0.671-0.687-0.671c-0.378,0-0.687,0.299-0.687,0.671v0.026c-0.962,0.098-1.804,0.399-2.409,0.835
	c-0.614,0.443-0.988,1.029-0.988,1.685c0,0.928,0.471,1.559,1.135,2.009c0.652,0.441,1.492,0.712,2.262,0.925v3.079
	c-0.595-0.077-1.098-0.25-1.455-0.462c-0.371-0.222-0.569-0.478-0.569-0.707c0-0.372-0.309-0.671-0.687-0.671
	c-0.378,0-0.687,0.3-0.687,0.671c0,0.656,0.374,1.242,0.988,1.685c0.604,0.436,1.446,0.737,2.409,0.835v0.026
	c0,0.372,0.309,0.671,0.687,0.671c0.378,0,0.687-0.299,0.687-0.671v-0.026c0.963-0.098,1.804-0.399,2.409-0.835
	c0.615-0.443,0.989-1.029,0.989-1.685C36.348,38.157,35.876,37.526,35.212,37.076z M31.577,33.072v2.696
	c-0.748-0.232-1.251-0.454-1.57-0.695c-0.324-0.246-0.454-0.511-0.454-0.833c0-0.228,0.198-0.484,0.569-0.706
	C30.479,33.321,30.981,33.149,31.577,33.072z M34.405,39.791c-0.356,0.212-0.859,0.385-1.455,0.462v-2.696
	c0.748,0.232,1.252,0.454,1.57,0.695c0.324,0.246,0.454,0.51,0.454,0.833C34.974,39.313,34.776,39.569,34.405,39.791z"/>
</svg>
