<svg width="34" height="32" viewBox="0 0 34 32" fill="none" xmlns="http://www.w3.org/2000/svg">
<path d="M24.6002 2.19966C24.3373 0.946405 23.1962 0 21.8313 0C21.5193 0 21.2661 0.245812 21.2661 0.549916C21.2661 0.85402 21.5193 1.09983 21.8313 1.09983C22.7661 1.09983 23.5269 1.84002 23.5269 2.74958C23.5269 3.65914 22.7661 4.39933 21.8313 4.39933C21.5193 4.39933 21.2661 4.64514 21.2661 4.94924C21.2661 5.25335 21.5193 5.49916 21.8313 5.49916C23.1957 5.49916 24.3373 4.55275 24.6002 3.2995H32.0047V8.24874H1.48439V3.2995H9.39707H11.0926C11.4046 3.2995 11.6578 3.05368 11.6578 2.74958C11.6578 2.44548 11.4046 2.19966 11.0926 2.19966H10.0663C10.3002 1.56066 10.922 1.09983 11.6578 1.09983C12.5927 1.09983 13.3534 1.84002 13.3534 2.74958C13.3534 3.65914 12.5927 4.39933 11.6578 4.39933C11.3458 4.39933 11.0926 4.64514 11.0926 4.94924C11.0926 5.25335 11.3458 5.49916 11.6578 5.49916C13.2161 5.49916 14.4838 4.2657 14.4838 2.74958C14.4838 1.23346 13.2161 0 11.6578 0C10.2935 0 9.15177 0.946405 8.88896 2.19966H0.354004V9.34857V31.3452H33.1351V9.34857V2.19966H24.6002ZM32.0047 30.2454H1.48439V9.34857H32.0047V30.2454Z" fill="white"/>
<path d="M15.0491 1.09983C15.9839 1.09983 16.7447 1.84002 16.7447 2.74958C16.7447 3.65914 15.9839 4.39933 15.0491 4.39933C14.7371 4.39933 14.4839 4.64514 14.4839 4.94924C14.4839 5.25335 14.7371 5.49916 15.0491 5.49916C16.6073 5.49916 17.875 4.2657 17.875 2.74958C17.875 1.23346 16.6073 0 15.0491 0C14.7371 0 14.4839 0.245812 14.4839 0.549916C14.4839 0.85402 14.7371 1.09983 15.0491 1.09983Z" fill="white"/>
<path d="M18.4402 1.09983C19.375 1.09983 20.1358 1.84002 20.1358 2.74958C20.1358 3.65914 19.375 4.39933 18.4402 4.39933C18.1282 4.39933 17.875 4.64514 17.875 4.94924C17.875 5.25335 18.1282 5.49916 18.4402 5.49916C19.9984 5.49916 21.2662 4.2657 21.2662 2.74958C21.2662 1.23346 19.9984 0 18.4402 0C18.1282 0 17.875 0.245812 17.875 0.549916C17.875 0.85402 18.1282 1.09983 18.4402 1.09983Z" fill="white"/>
<path d="M5.44068 13.7473H17.8749C18.1869 13.7473 18.4401 13.5015 18.4401 13.1974C18.4401 12.8933 18.1869 12.6475 17.8749 12.6475H5.44068C5.12869 12.6475 4.87549 12.8933 4.87549 13.1974C4.87549 13.5015 5.12869 13.7473 5.44068 13.7473Z" fill="white"/>
<path d="M28.0484 21.4468H19.5706C19.2586 21.4468 19.0054 21.6926 19.0054 21.9967C19.0054 22.3008 19.2586 22.5466 19.5706 22.5466H28.0484C28.3604 22.5466 28.6136 22.3008 28.6136 21.9967C28.6136 21.6926 28.3604 21.4468 28.0484 21.4468Z" fill="white"/>
<path d="M5.44068 18.1472H11.0926C11.4046 18.1472 11.6578 17.9014 11.6578 17.5973C11.6578 17.2932 11.4046 17.0474 11.0926 17.0474H5.44068C5.12869 17.0474 4.87549 17.2932 4.87549 17.5973C4.87549 17.9014 5.12869 18.1472 5.44068 18.1472Z" fill="white"/>
<path d="M28.0486 25.8457H22.3967C22.0847 25.8457 21.8315 26.0915 21.8315 26.3956C21.8315 26.6997 22.0847 26.9455 22.3967 26.9455H28.0486C28.3606 26.9455 28.6138 26.6997 28.6138 26.3956C28.6138 26.0915 28.3606 25.8457 28.0486 25.8457Z" fill="white"/>
<path d="M16.1792 17.5973C16.1792 17.9014 16.4324 18.1472 16.7444 18.1472H25.2223C25.5343 18.1472 25.7875 17.9014 25.7875 17.5973C25.7875 17.2932 25.5343 17.0474 25.2223 17.0474H16.7444C16.4324 17.0474 16.1792 17.2932 16.1792 17.5973Z" fill="white"/>
<path d="M14.32 17.9882C14.4217 17.8837 14.4839 17.7407 14.4839 17.5977C14.4839 17.4542 14.4217 17.3112 14.32 17.2073C14.1109 17.0038 13.7265 17.0038 13.5174 17.2073C13.4157 17.3112 13.3535 17.4542 13.3535 17.5977C13.3535 17.7407 13.4157 17.8837 13.5174 17.9882C13.6248 18.0921 13.7718 18.1476 13.9187 18.1476C14.0657 18.1476 14.2126 18.0921 14.32 17.9882Z" fill="white"/>
<path d="M7.70166 21.9967C7.70166 22.3008 7.95487 22.5466 8.26685 22.5466H16.7447C17.0567 22.5466 17.3099 22.3008 17.3099 21.9967C17.3099 21.6926 17.0567 21.4468 16.7447 21.4468H8.26685C7.95487 21.4468 7.70166 21.6926 7.70166 21.9967Z" fill="white"/>
<path d="M5.44068 22.5469C5.58763 22.5469 5.73458 22.4864 5.84197 22.3874C5.9437 22.2829 6.00587 22.1399 6.00587 21.997C6.00587 21.8534 5.9437 21.7104 5.84197 21.612C5.63285 21.403 5.24851 21.403 5.03939 21.6065C4.93766 21.7104 4.87549 21.8534 4.87549 21.997C4.87549 22.1399 4.93766 22.2829 5.03939 22.3874C5.14678 22.4864 5.28808 22.5469 5.44068 22.5469Z" fill="white"/>
<path d="M28.0486 18.1476C28.1955 18.1476 28.3425 18.0921 28.4499 17.9882C28.5573 17.8837 28.6138 17.7407 28.6138 17.5977C28.6138 17.4542 28.5573 17.3112 28.4499 17.2073C28.2351 17.0038 27.8564 17.0038 27.6473 17.2073C27.5456 17.3112 27.4834 17.4542 27.4834 17.5977C27.4834 17.7407 27.5456 17.8837 27.6473 17.9882C27.7547 18.0921 27.9016 18.1476 28.0486 18.1476Z" fill="white"/>
<path d="M19.5705 25.8457H5.44068C5.12869 25.8457 4.87549 26.0915 4.87549 26.3956C4.87549 26.6997 5.12869 26.9455 5.44068 26.9455H19.5705C19.8825 26.9455 20.1357 26.6997 20.1357 26.3956C20.1357 26.0915 19.8825 25.8457 19.5705 25.8457Z" fill="white"/>
</svg>
