<svg width="33" height="33" viewBox="0 0 33 33" fill="none" xmlns="http://www.w3.org/2000/svg">
<path fill-rule="evenodd" clip-rule="evenodd" d="M3.25049 1.38187C3.25049 1.17097 3.42872 1 3.64859 1H32.3117C32.5315 1 32.7098 1.17097 32.7098 1.38187V29.0039C32.7098 29.2148 32.5315 29.3858 32.3117 29.3858C32.0918 29.3858 31.9136 29.2148 31.9136 29.0039V1.76374H3.64859C3.42872 1.76374 3.25049 1.59277 3.25049 1.38187Z" fill="white" stroke="white" stroke-width="0.5" stroke-linecap="round" stroke-linejoin="round"/>
<path d="M3.66816 29.5625L3.79316 29.5625L3.79316 29.4375L3.79316 5.67881L5.41903 7.30468C5.62208 7.50773 5.9513 7.50773 6.15436 7.30468C6.35741 7.10162 6.35741 6.7724 6.15436 6.56935L3.64086 4.05585C3.43781 3.85279 3.10859 3.85279 2.90553 4.05585L0.392037 6.56935C0.188981 6.7724 0.188981 7.10162 0.392037 7.30468C0.595094 7.50773 0.924312 7.50773 1.12737 7.30468L2.75324 5.67881L2.75324 29.4375L2.75324 29.5625L2.87824 29.5625L3.66816 29.5625Z" fill="white" stroke="white" stroke-width="0.25"/>
<path d="M2.75244 29.8317V29.9567H2.87744L26.7605 29.9567L25.1264 31.5824C24.9223 31.7855 24.9223 32.1151 25.1264 32.3182C25.3302 32.5209 25.6604 32.5209 25.8642 32.3182L28.3908 29.8047C28.595 29.6016 28.595 29.272 28.3908 29.0689L25.8642 26.5554C25.6604 26.3526 25.3302 26.3526 25.1264 26.5554C24.9223 26.7585 24.9223 27.0881 25.1264 27.2912L26.7605 28.9168L2.87744 28.9168H2.75244V29.0418V29.8317Z" fill="white" stroke="white" stroke-width="0.25"/>
<path fill-rule="evenodd" clip-rule="evenodd" d="M14.1628 1.11568C14.317 1.26992 14.317 1.51999 14.1628 1.67423L9.42326 6.41373C9.26902 6.56797 9.01894 6.56797 8.8647 6.41373C8.71046 6.25949 8.71046 6.00941 8.8647 5.85517L13.6042 1.11568C13.7584 0.96144 14.0085 0.96144 14.1628 1.11568Z" fill="white" stroke="white" stroke-width="0.5" stroke-linecap="round" stroke-linejoin="round"/>
<path fill-rule="evenodd" clip-rule="evenodd" d="M32.4621 19.9423C32.6164 20.0966 32.6164 20.3467 32.4621 20.5009L28.1176 24.8454C27.9634 24.9997 27.7133 24.9997 27.559 24.8454C27.4048 24.6912 27.4048 24.4411 27.559 24.2869L31.9036 19.9423C32.0578 19.7881 32.3079 19.7881 32.4621 19.9423Z" fill="white" stroke="white" stroke-width="0.5" stroke-linecap="round" stroke-linejoin="round"/>
<path fill-rule="evenodd" clip-rule="evenodd" d="M20.0849 1.11391C20.2401 1.26716 20.2417 1.51723 20.0885 1.67245L9.81956 12.073C9.66631 12.2282 9.41624 12.2298 9.26102 12.0766C9.1058 11.9233 9.10421 11.6732 9.25746 11.518L19.5264 1.11746C19.6796 0.962245 19.9297 0.960652 20.0849 1.11391Z" fill="white" stroke="white" stroke-width="0.5" stroke-linecap="round" stroke-linejoin="round"/>
<path fill-rule="evenodd" clip-rule="evenodd" d="M32.5939 13.3593C32.7481 13.5136 32.7481 13.7636 32.5939 13.9179L22.5883 23.9235C22.4341 24.0777 22.184 24.0777 22.0297 23.9235C21.8755 23.7692 21.8755 23.5192 22.0297 23.3649L32.0353 13.3593C32.1896 13.2051 32.4396 13.2051 32.5939 13.3593Z" fill="white" stroke="white" stroke-width="0.5" stroke-linecap="round" stroke-linejoin="round"/>
<path fill-rule="evenodd" clip-rule="evenodd" d="M26.4084 1.24978C26.5614 1.40526 26.5594 1.65532 26.4039 1.80831L9.94736 18.0016C9.79188 18.1546 9.54182 18.1526 9.38883 17.9971C9.23584 17.8416 9.23785 17.5915 9.39333 17.4385L25.8499 1.24527C26.0054 1.09228 26.2554 1.0943 26.4084 1.24978Z" fill="white" stroke="white" stroke-width="0.5" stroke-linecap="round" stroke-linejoin="round"/>
<path fill-rule="evenodd" clip-rule="evenodd" d="M32.594 7.17183C32.7482 7.32607 32.7482 7.57615 32.594 7.73039L16.0058 24.3186C15.8515 24.4728 15.6015 24.4728 15.4472 24.3186C15.293 24.1644 15.293 23.9143 15.4472 23.7601L32.0354 7.17183C32.1897 7.01759 32.4398 7.01759 32.594 7.17183Z" fill="white" stroke="white" stroke-width="0.5" stroke-linecap="round" stroke-linejoin="round"/>
<path fill-rule="evenodd" clip-rule="evenodd" d="M32.3307 1.24752C32.4849 1.40176 32.4849 1.65183 32.3307 1.80607L9.68644 24.4503C9.5322 24.6046 9.28213 24.6046 9.12789 24.4503C8.97365 24.2961 8.97365 24.046 9.12789 23.8918L31.7721 1.24752C31.9264 1.09328 32.1764 1.09328 32.3307 1.24752Z" fill="white" stroke="white" stroke-width="0.5" stroke-linecap="round" stroke-linejoin="round"/>
</svg>
