<svg width="114" height="28" viewBox="0 0 114 28" fill="none" xmlns="http://www.w3.org/2000/svg">
<rect x="0.000488281" y="12.9998" width="32" height="1.54334" rx="0.771672" fill="#E3B873"/>
<rect x="82.0005" y="12.9998" width="32" height="1.54334" rx="0.771672" fill="#E3B873"/>
<path d="M67.4055 21.1434C66.8239 20.7342 66.1528 20.5144 65.4749 20.4785C62.9199 18.8054 61.2462 17.5495 60.269 16.5724L57.2674 13.5707L59.0889 11.5318C59.4341 11.7267 59.8049 11.8551 60.1757 11.908C60.4556 11.9546 60.6422 11.9546 60.8288 11.9546C61.2019 11.9546 61.2952 11.9546 61.6683 12.2811C61.4818 12.4211 61.3885 12.6543 61.3885 12.8875C61.3885 13.1207 61.4818 13.4006 61.6683 13.5871L63.3009 15.2197C63.5341 15.4995 63.9072 15.6394 64.2804 15.6394C64.6535 15.6394 65.0267 15.4995 65.2599 15.173L68.5716 11.8613C68.8514 11.6281 68.9914 11.255 68.9914 10.8818C68.9914 10.5087 68.8514 10.1822 68.5716 9.90232L66.9391 8.26979C66.7525 8.08324 66.5193 7.98993 66.286 7.98993C66.0528 7.98993 65.8196 8.12986 65.633 8.26979C65.2598 7.94331 65.2598 7.85 65.2598 7.47684C65.2598 7.29028 65.2598 7.05705 65.1665 6.77719C65.0732 6.12416 64.7467 5.4712 64.2337 4.9581L62.5545 3.27894C61.575 2.29944 61.1086 1.83302 59.8492 1.2733C57.1439 0.013935 54.3919 0.24717 50.3806 2.06626C50.1474 2.15956 50.0541 2.34612 50.1007 2.57935C50.1474 2.81258 50.334 2.95251 50.5672 2.95251H51.1735C53.2258 2.95251 54.2986 2.95251 56.1644 4.81823C56.9813 5.63518 57.0049 6.88782 56.2729 7.80944C56.1742 7.82431 56.0991 7.86859 56.0244 7.94331L53.9525 10.2559L52.3862 8.68963C50.6648 6.96817 49.454 5.33946 48.5221 3.5259C48.4731 2.60821 48.1049 1.74961 47.4421 1.0868C46.6492 0.293904 45.5297 -0.0792603 44.4103 0.0140445C44.2704 0.0606695 44.1305 0.153974 44.0838 0.247279C43.9905 0.387209 43.9905 0.573763 44.0838 0.713693L45.3898 3.04587C45.11 3.65222 44.4569 4.02538 43.804 3.97876L42.4513 1.73983C42.4047 1.5999 42.2181 1.50659 42.0781 1.50659C41.9382 1.45997 41.7983 1.55322 41.705 1.69315C40.5855 3.3723 41.0053 5.61118 42.6845 6.77724C43.263 7.19047 43.9148 7.42026 44.5748 7.46738C44.5822 7.4705 44.5892 7.47432 44.5968 7.47689C46.4159 8.40977 48.0484 9.62246 49.7742 11.3483L51.4801 13.0154L41.5651 24.082C41.1919 24.4551 41.0054 24.9682 41.0054 25.4813C41.0054 25.9944 41.1919 26.4608 41.5651 26.8339L42.2181 27.487C42.5913 27.8134 43.0577 28 43.5241 28C43.9905 28 44.5036 27.8135 44.8768 27.4403L54.7805 16.3546L57.657 19.2311C58.6356 20.2097 59.8935 21.9332 61.5703 24.4481C61.6305 25.3458 61.9978 26.1839 62.6479 26.8339C63.3475 27.5336 64.2804 27.9067 65.2599 27.9067C65.3998 27.9067 65.5398 27.9067 65.6331 27.9067C65.773 27.9067 65.9129 27.8134 66.0062 27.6735C66.0995 27.5336 66.0995 27.347 66.0062 27.2071L64.6536 24.9216C64.98 24.3153 65.5864 23.9421 66.2861 23.9887L67.5921 26.2276C67.6387 26.3675 67.8253 26.4608 67.9652 26.4608C68.1518 26.4142 68.2917 26.3675 68.385 26.2276C69.5044 24.5484 69.0379 22.3095 67.4055 21.1434ZM56.7708 4.07201C55.2782 2.62608 54.1588 2.15962 52.8994 2.01969C55.5581 1.18011 57.5171 1.22673 59.4761 2.11299C60.5955 2.57941 60.9687 2.95257 61.9482 3.93208L63.6274 5.61123C64.0005 5.9844 64.2337 6.45081 64.2804 6.91723C64.327 7.15046 64.327 7.33702 64.327 7.47695C64.327 7.99004 64.3736 8.36315 64.9334 8.92287C65.1199 9.10942 65.3998 9.20273 65.633 9.20273C65.9129 9.20273 66.1461 9.10942 66.286 8.92287L67.9186 10.5554C68.0119 10.6487 68.0585 10.742 68.0585 10.8819C68.0585 11.0218 68.0119 11.1151 67.9186 11.2084L64.6069 14.5201C64.4203 14.7066 64.1405 14.7066 63.9538 14.5201L62.3213 12.8875C62.5079 12.7476 62.6012 12.5144 62.5546 12.2345C62.5546 12.0013 62.4612 11.7214 62.2747 11.5349C61.715 10.9751 61.3418 10.9285 60.8288 10.9285C60.6888 10.9285 60.5023 10.9285 60.269 10.8819C59.756 10.8353 59.3362 10.602 58.9631 10.2289L56.9574 8.22322C57.9835 6.96391 57.8902 5.19145 56.7708 4.07201ZM42.1248 2.95257L43.1043 4.63173C43.1976 4.77166 43.3376 4.86496 43.4775 4.86496H43.7107C44.7835 4.91159 45.763 4.35187 46.2295 3.41904L46.3228 3.1858C46.4161 3.04587 46.4161 2.90594 46.3228 2.76601L45.2966 0.993553C45.8563 1.08686 46.3694 1.36672 46.7892 1.78651C47.2701 2.30747 47.578 2.96634 47.5962 3.67408C47.5872 3.70999 47.5821 3.74864 47.5821 3.7922C47.5821 4.00822 47.556 4.21893 47.5077 4.42205C47.3318 5.09743 46.9099 5.68628 46.3227 6.07776C45.3898 6.6841 44.1305 6.6841 43.1976 6.03113C42.2181 5.33137 41.7983 4.07201 42.1248 2.95257ZM50.4273 10.6953C49.028 9.24941 47.6287 8.12997 46.1361 7.24371C46.3693 7.15041 46.6492 7.01048 46.8824 6.87055C47.582 6.40413 48.0484 5.79773 48.3283 5.05146C49.2145 6.54406 50.3339 7.94336 51.7332 9.34266L53.3353 10.9447L52.0789 12.347L50.4273 10.6953ZM44.2238 26.7406C43.8506 27.1138 43.2442 27.1604 42.8711 26.7873L42.2181 26.1809C42.0315 25.9944 41.9382 25.7611 41.9382 25.5279C41.9382 25.248 42.0315 25.0148 42.2647 24.7816L42.5289 24.4861L43.1976 25.1548C43.2909 25.2481 43.3841 25.2947 43.5241 25.2947C43.664 25.2947 43.7573 25.2481 43.8505 25.1548C44.0371 24.9682 44.0371 24.6884 43.8505 24.5018L43.1452 23.7964L43.7616 23.1068L44.5036 23.8487C44.5969 23.942 44.6901 23.9887 44.83 23.9887C44.97 23.9887 45.0633 23.942 45.1565 23.8487C45.3431 23.6622 45.3431 23.3823 45.1565 23.1957L44.3781 22.4172L56.3756 8.99415L58.3346 10.9532L56.4098 13.1067C56.3548 13.13 56.3061 13.1656 56.2577 13.2141L54.392 15.313C54.3387 15.3663 54.3012 15.4273 54.2784 15.4914L44.2238 26.7406ZM55.4187 15.6401L56.6952 14.2113L59.7093 17.2254C60.5489 18.1116 61.9948 19.231 64.0937 20.6303C63.8139 20.7236 63.534 20.8636 63.2541 21.0501C62.6755 21.4118 62.2656 21.914 61.98 22.4691C61.9758 22.477 61.9719 22.4851 61.9678 22.4931C61.9508 22.5265 61.9343 22.5601 61.9183 22.5938C61.8952 22.6417 61.8734 22.69 61.8524 22.7389C61.8381 22.772 61.8239 22.805 61.8104 22.8383C61.8084 22.8431 61.8066 22.848 61.8047 22.8528C61.79 22.8893 61.7754 22.9258 61.7616 22.9625C61.4967 22.5739 61.2418 22.2072 60.9966 21.8618L61.6217 21.2367C61.8082 21.0502 61.8082 20.7703 61.6217 20.5837C61.4351 20.3972 61.1553 20.3972 60.9686 20.5837L60.4487 21.1037C60.2548 20.8407 60.0676 20.5926 59.887 20.3593L60.3157 19.9307C60.5022 19.7441 60.5022 19.4643 60.3157 19.2777C60.1291 19.0911 59.8493 19.0911 59.6626 19.2777L59.3066 19.6337C58.9638 19.2206 58.6476 18.8689 58.3567 18.578L55.4187 15.6401ZM67.9185 24.9682L66.939 23.289C66.8457 23.1491 66.7058 23.0558 66.5658 23.0558H66.3326C65.2598 22.9625 64.2803 23.5689 63.8139 24.5017L63.7206 24.7349C63.6273 24.8749 63.6273 25.0148 63.7206 25.1547L64.7467 26.9272C64.187 26.8339 63.6739 26.554 63.2541 26.1342C62.7823 25.6231 62.4774 24.9793 62.4487 24.2869C62.4567 24.2528 62.4611 24.2162 62.4611 24.1752C62.4611 23.5843 62.6487 23.0311 62.9756 22.5625C63.1765 22.283 63.4277 22.0383 63.7205 21.8431C64.1869 21.5166 64.7 21.3767 65.2597 21.3767C65.8194 21.3767 66.3792 21.5632 66.8456 21.8898C67.8253 22.5894 68.245 23.8487 67.9185 24.9682Z" fill="#E3B873"/>
</svg>
